<mxfile host="app.diagrams.net" modified="2021-04-09T15:01:42.484Z" agent="5.0 (Macintosh; Intel Mac OS X 10_15_6) AppleWebKit/537.36 (KHTML, like Gecko) Chrome/89.0.4389.114 Safari/537.36" etag="Jy__fxV10ykwOR_-BkwP" version="14.4.9" type="github">
  <diagram id="e-wOYRZ8UH_QBlvDWpTJ" name="第 1 页">
    <mxGraphModel dx="965" dy="776" grid="1" gridSize="10" guides="1" tooltips="1" connect="1" arrows="1" fold="1" page="1" pageScale="1" pageWidth="827" pageHeight="1169" math="0" shadow="0">
      <root>
        <mxCell id="0" />
        <mxCell id="1" parent="0" />
        <mxCell id="Waax4HHcstRUwibmnvsZ-7" style="edgeStyle=orthogonalEdgeStyle;rounded=0;orthogonalLoop=1;jettySize=auto;html=1;entryX=0;entryY=0.5;entryDx=0;entryDy=0;" edge="1" parent="1" source="Waax4HHcstRUwibmnvsZ-3" target="Waax4HHcstRUwibmnvsZ-4" visible="0">
          <mxGeometry relative="1" as="geometry" />
        </mxCell>
        <mxCell id="Waax4HHcstRUwibmnvsZ-3" value="Sub Section" style="whiteSpace=wrap;html=1;align=center;verticalAlign=middle;treeFolding=1;treeMoving=1;fillColor=#4557FF;strokeColor=none;fontColor=#FFFFFF;expand=1;collapsible=0;allowArrows=0;perimeter=rectanglePerimeter;" vertex="1" collapsed="1" parent="1">
          <mxGeometry x="300" y="330" width="100" height="60" as="geometry" />
        </mxCell>
        <mxCell id="Waax4HHcstRUwibmnvsZ-4" value="humanebydesign" style="whiteSpace=wrap;html=1;align=center;verticalAlign=middle;treeFolding=1;treeMoving=1;expand=1;editable=1;collapsible=0;strokeColor=none;fillColor=#73A2FF;" vertex="1" visible="0" parent="1">
          <mxGeometry x="450" y="330" width="100" height="60" as="geometry" />
        </mxCell>
      </root>
    </mxGraphModel>
  </diagram>
</mxfile>
